<?xml version="1.0" encoding="utf-8"?>
<!-- Generator: Adobe Illustrator 26.0.0, SVG Export Plug-In . SVG Version: 6.00 Build 0)  -->
<svg version="1.1" id="图层_1" xmlns="http://www.w3.org/2000/svg" xmlns:xlink="http://www.w3.org/1999/xlink" x="0px" y="0px"
	 viewBox="0 0 681.8 240" style="enable-background:new 0 0 681.8 240;" xml:space="preserve">
<style type="text/css">
	.st0{fill:url(#SVGID_1_);}
	.st1{fill:url(#SVGID_00000024686131329595708990000002457089356105712290_);}
	.st2{fill:url(#SVGID_00000036974261830150654510000010803773035525878195_);}
	.st3{fill:url(#SVGID_00000038414123413717921120000008093805545655657869_);}
	.st4{fill:none;}
</style>
<path d="M238.1,89.1l6.6-18.3h13.7l-1.6,4.9h16.1v13.4H238.1z M247.8,139.3h-9.7v-13.4h9.7v-15.1h-9.7V97.2h34.7v13.5h-9.7v15.1h9.7
	v13.4h-9.7V153c0,1.1,0.3,2.1,0.8,3c0.6,0.8,1.6,1.2,2.6,1.1h6.3l-5.7,11.5h-7.3c-1.6,0-3.2-0.3-4.6-1.1c-1.5-0.8-2.8-1.8-3.8-3.1
	c-1.2-1.3-2-2.9-2.6-4.6c-0.3-0.9-0.5-1.8-0.8-2.8c-0.2-1-0.3-2-0.3-3L247.8,139.3z M282.7,87.5l-8-16.6H291l8.1,16.6H282.7z
	 M275.4,168.5l6.5-34.7h-6.5l0.3-0.1l6.8-29.8h-7V91.3h25l-6.4,30.2h4.8l-3.1,19.3l11.1,15.7h50.4l-3.8,12h-55.7l-5.5-7.3l-1.4,7.3
	L275.4,168.5z M325.2,70.8l-0.7,5H357v13.4h-34.3l-2.7,18.7h4.6V94.8h17.8v13.1H357v13.5h-14.6v7.7H357v13.4h-14.6V153h-17.8v-10.4
	h-22.7v-13.4h22.7v-7.7h-22.9l5-32.2h-4.9V75.9h6.9l0.7-5L325.2,70.8z"/>
<path d="M423.2,156.2H405l15-69.9h18.1L423.2,156.2z M437.3,167.4l4.6-12.6h8.2c0.8,0,1.5-0.3,2.1-0.9c0.6-0.6,0.9-1.4,0.9-2.2V72
	h18.8v83.4c0,6.6-5.4,12-12,12L437.3,167.4z M502.2,156.2l-15-69.9h18.1l15,69.9H502.2z"/>
<path d="M575.8,115.3h-13v-10.6h16.6l1.8-5h-16.8V89.4h20.3l1.5-4.2h-22.9V74.6h26.6l1.2-3.7h18.5l-1.2,3.7h18v10.5h-21.7l-1.5,4.2
	h22v10.4h-25.5l-1.8,5h27.8v10.6h-31.5l-3.4,9.6h-18.5L575.8,115.3z M613.8,126h18.3v5h34.8c1.7,0,3.4,0.3,4.9,1
	c3.1,1.3,5.5,3.7,6.8,6.8c0.7,1.6,1,3.2,1,4.9v6.9c0,1.7-0.3,3.4-1,5c-1.3,3-3.7,5.4-6.8,6.7c-1.6,0.7-3.2,1-4.9,1h-20.4l3.9-10.3
	h7.6c1.8,0.1,3.3-1.3,3.4-3.1c0-0.1,0-0.2,0-0.3V145c0-0.9-0.3-1.8-0.9-2.4c-0.6-0.7-1.5-1-2.4-1h-26v26.8h-18.2v-26.8h-29.4v21.8
	h-18.1V131h47.5V126z M629.5,83.1h-0.1V72.7h52.2l0.3-0.1v0.1l-0.1,0.1l-10,18.2h10.2l-15.6,29.1h-16.4l10.8-18.7h-11L661,83.1
	h-13.3V125h-18.1V83.1z"/>
<linearGradient id="SVGID_1_" gradientUnits="userSpaceOnUse" x1="128.25" y1="152.38" x2="128.4" y2="152.38" gradientTransform="matrix(1 0 0 -1 -65.08 193.98)">
	<stop  offset="0" style="stop-color:#31A3E8"/>
	<stop  offset="1" style="stop-color:#5BEB91"/>
</linearGradient>
<path class="st0" d="M63.2,41c0.1,0.4,0.1,0.8,0.1,1.1V41H63.2z"/>
<linearGradient id="SVGID_00000074429095322858996810000006846285707541493904_" gradientUnits="userSpaceOnUse" x1="128.4" y1="151.705" x2="128.42" y2="151.705" gradientTransform="matrix(1 0 0 -1 -65.08 193.98)">
	<stop  offset="0" style="stop-color:#31A3E8"/>
	<stop  offset="1" style="stop-color:#5BEB91"/>
</linearGradient>
<path style="fill:url(#SVGID_00000074429095322858996810000006846285707541493904_);" d="M63.3,42.4L63.3,42.4v-0.2
	C63.3,42.2,63.3,42.3,63.3,42.4z"/>
<linearGradient id="SVGID_00000123415972295330601200000017594742692188078260_" gradientUnits="userSpaceOnUse" x1="86.91" y1="92.86" x2="105.53" y2="92.86" gradientTransform="matrix(1 0 0 -1 0 242)">
	<stop  offset="0" style="stop-color:#31A3E8"/>
	<stop  offset="1" style="stop-color:#5BEB91"/>
</linearGradient>
<ellipse style="fill:url(#SVGID_00000123415972295330601200000017594742692188078260_);" cx="96.2" cy="149.1" rx="9.3" ry="19.7"/>
<linearGradient id="SVGID_00000096060394108632099690000017558589245248143270_" gradientUnits="userSpaceOnUse" x1="65.09" y1="74.0091" x2="257.8111" y2="74.0091" gradientTransform="matrix(1 0 0 -1 -65.08 193.98)">
	<stop  offset="0" style="stop-color:#31A3E8"/>
	<stop  offset="1" style="stop-color:#5BEB91"/>
</linearGradient>
<path style="fill:url(#SVGID_00000096060394108632099690000017558589245248143270_);" d="M192.4,99.3c-0.4-3.8-2.3-7.2-5.4-9.4
	c-17.6-10.8-35.5-21.1-53.6-31c-3-1.6-8.4-1.5-11.5,0.1c-11.1,5.6-21.6,12.2-32.4,18.4c-7.7,4.4-15.5,8.8-25.1,14.3
	c-0.4-5.1-0.9-8.2-0.9-11.2c-0.1-12.7-0.2-25.4-0.1-38.1v-0.2c0-0.4-0.1-0.8-0.1-1.1c-0.8-5-3.5-8.5-8.6-11.3
	c-1.7-0.9-3.3-1.8-4.9-2.7c-14-7.9-27.9-16.2-41.9-24.2C5.6,1.7,3.3,0.8,1,0C0.5,2.4,0.2,4.8,0,7.3v35.1h0.1
	c0,51.4,0,102.9-0.1,154.3c0,5.6,2.1,9.4,7.1,12.2c16.8,9.6,33.5,19.2,50.1,29.1c4.4,2.6,8.2,2.5,12.5-0.1c7.7-4.6,15.6-9,23.4-13.4
	c30.7-17.3,61.3-34.5,91.9-51.7c4.4-2.4,7.7-5,7.7-10.8C192.5,141.1,192.9,120.2,192.4,99.3z M127.2,149.3c-0.1,2.9-0.4,5.9-0.6,8.7
	c-1,14.8,1.3,29.8-0.6,44.5c-6.4-2.2-12.3-5.6-18.1-8.9C96,186.7,84.1,179.9,72.3,173c-2.8-1.6-5.6-3.3-7.2-6.1s-1.6-6.1-1.6-9.3
	c0-17.9,0-35.8,0-53.6c0-2.5-0.1-6.7,3.2-6.5c3.5,0.2,6.8,2.8,9.4,4.9c6.4,4.9,13.1,9.3,20.2,13.3l10.4,4.3
	c6.6,2.7,13.6,5.8,17.4,11.8C127.2,137,127.5,143.1,127.2,149.3L127.2,149.3z"/>
<line class="st4" x1="63.3" y1="41" x2="63.2" y2="41"/>
</svg>
